<?xml version="1.0" encoding="UTF-8" standalone="no"?>
<!-- Created with Inkscape (http://www.inkscape.org/) -->

<svg
   width="140mm"
   height="140mm"
   viewBox="0 0 140 140"
   version="1.1"
   id="svg5"
   xml:space="preserve"
   inkscape:version="1.2.2 (b0a8486541, 2022-12-01)"
   sodipodi:docname="Logo.svg"
   inkscape:export-filename="Exported/Logo.svg"
   inkscape:export-xdpi="185.78287"
   inkscape:export-ydpi="185.78287"
   xmlns:inkscape="http://www.inkscape.org/namespaces/inkscape"
   xmlns:sodipodi="http://sodipodi.sourceforge.net/DTD/sodipodi-0.dtd"
   xmlns:xlink="http://www.w3.org/1999/xlink"
   xmlns="http://www.w3.org/2000/svg"
   xmlns:svg="http://www.w3.org/2000/svg"><sodipodi:namedview
     id="namedview7"
     pagecolor="#a6a6a6"
     bordercolor="#666666"
     borderopacity="1.0"
     inkscape:showpageshadow="2"
     inkscape:pageopacity="0"
     inkscape:pagecheckerboard="0"
     inkscape:deskcolor="#666666"
     inkscape:document-units="mm"
     showgrid="false"
     inkscape:zoom="1.4142136"
     inkscape:cx="160.86679"
     inkscape:cy="263.75082"
     inkscape:window-width="1920"
     inkscape:window-height="1004"
     inkscape:window-x="1920"
     inkscape:window-y="0"
     inkscape:window-maximized="1"
     inkscape:current-layer="layer1"
     showguides="true"><sodipodi:guide
       position="0,140"
       orientation="0,529.13386"
       id="guide9635"
       inkscape:locked="false" /><sodipodi:guide
       position="140,140"
       orientation="529.13386,0"
       id="guide9637"
       inkscape:locked="false" /><sodipodi:guide
       position="140,0"
       orientation="0,-529.13386"
       id="guide9639"
       inkscape:locked="false" /><sodipodi:guide
       position="0,0"
       orientation="-529.13386,0"
       id="guide9641"
       inkscape:locked="false" /><sodipodi:guide
       position="70.000001,70.000001"
       orientation="0,1"
       id="guide9643"
       inkscape:locked="false"
       inkscape:label=""
       inkscape:color="rgb(0,134,229)" /></sodipodi:namedview><defs
     id="defs2"><linearGradient
       inkscape:collect="always"
       id="linearGradient34779"><stop
         style="stop-color:#ffffff;stop-opacity:1;"
         offset="0.34811503"
         id="stop34775" /><stop
         style="stop-color:#ffffff;stop-opacity:0;"
         offset="0.77173805"
         id="stop34781" /><stop
         style="stop-color:#000000;stop-opacity:0.09531561;"
         offset="1"
         id="stop34777" /></linearGradient><linearGradient
       inkscape:collect="always"
       id="linearGradient28632"><stop
         style="stop-color:#ffffff;stop-opacity:1;"
         offset="0.57929432"
         id="stop28628" /><stop
         style="stop-color:#ffffff;stop-opacity:0;"
         offset="1"
         id="stop28630" /></linearGradient><linearGradient
       inkscape:collect="always"
       id="linearGradient27696"><stop
         style="stop-color:#ffffff;stop-opacity:1;"
         offset="0.45160732"
         id="stop27692" /><stop
         style="stop-color:#ffffff;stop-opacity:0;"
         offset="1"
         id="stop27694" /></linearGradient><inkscape:path-effect
       effect="mirror_symmetry"
       start_point="-26.15095,131.74202"
       end_point="244.78237,131.74202"
       center_point="109.31571,131.74202"
       id="path-effect7704"
       is_visible="true"
       lpeversion="1.2"
       lpesatellites=""
       mode="free"
       discard_orig_path="false"
       fuse_paths="false"
       oposite_fuse="false"
       split_items="false"
       split_open="false"
       link_styles="false" /><inkscape:path-effect
       effect="mirror_symmetry"
       start_point="40.909286,19.037466"
       end_point="40.909286,159.03747"
       center_point="40.909286,89.037466"
       id="path-effect420"
       is_visible="true"
       lpeversion="1.2"
       lpesatellites=""
       mode="vertical"
       discard_orig_path="false"
       fuse_paths="false"
       oposite_fuse="false"
       split_items="false"
       split_open="false"
       link_styles="false" /><linearGradient
       inkscape:collect="always"
       xlink:href="#linearGradient27696"
       id="linearGradient27698"
       x1="1.0368775"
       y1="110.36848"
       x2="80.781482"
       y2="110.36848"
       gradientUnits="userSpaceOnUse" /><linearGradient
       inkscape:collect="always"
       xlink:href="#linearGradient34779"
       id="linearGradient28509"
       gradientUnits="userSpaceOnUse"
       x1="30.137686"
       y1="67.779114"
       x2="109.87735"
       y2="67.790512"
       gradientTransform="translate(-29.068933,19.006371)" /><linearGradient
       inkscape:collect="always"
       xlink:href="#linearGradient28632"
       id="linearGradient28634"
       x1="51.38446"
       y1="104.83837"
       x2="51.591091"
       y2="136.49863"
       gradientUnits="userSpaceOnUse" /><linearGradient
       inkscape:collect="always"
       xlink:href="#linearGradient28632"
       id="linearGradient28640"
       gradientUnits="userSpaceOnUse"
       x1="51.482544"
       y1="104.71577"
       x2="49.335197"
       y2="126.56784"
       gradientTransform="translate(10.004339,-2.0106773)" /><linearGradient
       inkscape:collect="always"
       xlink:href="#linearGradient28632"
       id="linearGradient28778"
       gradientUnits="userSpaceOnUse"
       gradientTransform="translate(19.057541,-5.3172604)"
       x1="51.482544"
       y1="104.71577"
       x2="49.577072"
       y2="123.56861" /></defs><g
     inkscape:label="Layer 1"
     inkscape:groupmode="layer"
     id="layer1"
     transform="translate(29.090714,-19.037466)"><g
       id="g418"
       inkscape:path-effect="#path-effect420"
       class="UnoptimicedTransforms"
       transform="translate(-65.263186,-43.868579)"><g
         id="g7702"
         inkscape:path-effect="#path-effect7704"
         class="UnoptimicedTransforms"
         transform="matrix(1,0,0,0.99999757,0.08398639,1.1643449)"
         style="display:inline"><path
           style="fill:#fe9ca8;fill-opacity:1;stroke:none;stroke-width:0.410001"
           id="rect412"
           width="14.19"
           height="2.0000048"
           x="40.362743"
           y="123.61911"
           d="m 41.362743,123.61911 h 12.19 c 0.554,0 1,0.446 1,1 0,0.554 -0.446,1 -1,1 h -12.19 c -0.554,0 -1,-0.446 -1,-1 0,-0.554 0.446,-1 1,-1 z m 0,16.24582 h 12.19 c 0.554,0 1,-0.446 1,-1 0,-0.554 -0.446,-1 -1,-1 h -12.19 c -0.554,0 -1,0.446 -1,1 0,0.554 0.446,1 1,1 z M 170.81423,123.61911 h -12.19 c -0.554,0 -1,0.446 -1,1 0,0.554 0.446,1 1,1 h 12.19 c 0.554,0 1,-0.446 1,-1 0,-0.554 -0.446,-1 -1,-1 z m 0,16.24582 h -12.19 c -0.554,0 -1,-0.446 -1,-1 0,-0.554 0.446,-1 1,-1 h 12.19 c 0.554,0 1,0.446 1,1 0,0.554 -0.446,1 -1,1 z"
           sodipodi:type="rect"
           rx="1"
           ry="2.0000048" /><path
           style="fill:none;fill-opacity:1;stroke:#fe9ca8;stroke-width:2;stroke-dasharray:none;stroke-opacity:1;stroke-linecap:round"
           id="path9685"
           sodipodi:type="arc"
           sodipodi:cx="40.90556"
           sodipodi:cy="89.037987"
           sodipodi:rx="65"
           sodipodi:ry="65"
           sodipodi:start="3.4229641"
           sodipodi:end="4.5784925"
           sodipodi:arc-type="arc"
           d="M -21.53835,70.989214 C -14.386325,46.245129 6.7018505,28.058256 32.228271,24.619785 M -21.53835,107.08572 c 7.152025,24.74409 28.2402005,42.93096 53.766621,46.36943 M 103.35692,70.989214 C 96.204894,46.245129 75.116719,28.058256 49.590298,24.619785 m 53.766622,82.465935 c -7.152026,24.74409 -28.240201,42.93096 -53.766622,46.36943"
           sodipodi:open="true"
           transform="matrix(1,0,0,1.0000024,65.179201,42.704338)" /><path
           style="fill:none;fill-opacity:1;stroke:#fe9ca8;stroke-width:2.00000243;stroke-linecap:round;stroke-linejoin:miter;stroke-miterlimit:4;stroke-dasharray:none;stroke-opacity:1"
           id="path9690"
           sodipodi:type="arc"
           sodipodi:cx="106.0867"
           sodipodi:cy="131.74083"
           sodipodi:rx="61"
           sodipodi:ry="61.000149"
           sodipodi:start="3.7810297"
           sodipodi:end="4.5697143"
           sodipodi:open="true"
           sodipodi:arc-type="arc"
           d="M 57.138359,95.339369 C 66.834065,82.301677 81.330446,73.670772 97.413042,71.36049 m -40.274683,96.78418 c 9.695706,13.03769 24.192087,21.6686 40.274683,23.97888 M 155.03861,95.339369 C 145.34291,82.301677 130.84653,73.670772 114.76393,71.36049 m 40.27468,96.78418 c -9.6957,13.03769 -24.19208,21.6686 -40.27468,23.97888" /><path
           style="fill:none;fill-opacity:1;stroke:#fe9ca8;stroke-width:2;stroke-linecap:butt;stroke-linejoin:miter;stroke-dasharray:none;stroke-opacity:1"
           id="path9692"
           sodipodi:type="arc"
           sodipodi:cx="106.01778"
           sodipodi:cy="131.65312"
           sodipodi:rx="61"
           sodipodi:ry="61.000149"
           sodipodi:start="3.3749046"
           sodipodi:end="3.7061416"
           sodipodi:arc-type="arc"
           d="m 46.67051,117.54983 c 1.560743,-6.56771 4.200835,-12.8308 7.812636,-18.533911 M 46.67051,145.93421 c 1.560743,6.56771 4.200835,12.8308 7.812636,18.53391 M 165.50646,117.54983 c -1.56074,-6.56771 -4.20083,-12.8308 -7.81263,-18.533911 m 7.81263,46.918291 c -1.56074,6.56771 -4.20083,12.8308 -7.81263,18.53391"
           sodipodi:open="true" /><path
           style="fill:none;fill-opacity:1;stroke:#fe9ca8;stroke-width:2;stroke-linecap:butt;stroke-linejoin:miter;stroke-dasharray:none;stroke-opacity:1"
           id="path9696"
           sodipodi:type="arc"
           sodipodi:cx="106.07191"
           sodipodi:cy="131.69429"
           sodipodi:rx="53"
           sodipodi:ry="53.00013"
           sodipodi:start="3.2775612"
           sodipodi:end="3.4991183"
           sodipodi:open="true"
           sodipodi:arc-type="arc"
           d="m 53.56107,124.51012 c 0.53111,-3.88203 1.491062,-7.69319 2.86226,-11.36362 m -2.86226,25.82742 c 0.53111,3.88203 1.491062,7.69319 2.86226,11.36362 M 158.6159,124.51012 c -0.53111,-3.88203 -1.49106,-7.69319 -2.86226,-11.36362 m 2.86226,25.82742 c -0.53111,3.88203 -1.49106,7.69319 -2.86226,11.36362" /><path
           style="fill:#fe9ca8;fill-opacity:1;stroke:none;stroke-width:7.55906;stroke-linecap:butt;stroke-linejoin:miter;stroke-dasharray:none;stroke-opacity:1"
           id="rect9750"
           sodipodi:type="rect"
           width="11.933131"
           height="2.0000048"
           x="53.632229"
           y="98.47789"
           d="M 53.632229,98.47789 H 65.56536 v 2 H 53.632229 Z m 0,66.52826 H 65.56536 v -2 H 53.632229 Z M 158.54474,98.47789 h -11.93313 v 2 h 11.93313 z m 0,66.52826 h -11.93313 v -2 h 11.93313 z" /><path
           style="fill:#fe9ca8;fill-opacity:1;stroke:none;stroke-width:7.55906;stroke-linecap:butt;stroke-linejoin:miter;stroke-dasharray:none;stroke-opacity:1"
           id="rect9804"
           sodipodi:type="rect"
           width="6.2585206"
           height="2.0000048"
           x="41.402512"
           y="116.6181"
           d="m 42.402512,116.6181 h 4.25852 c 0.554,0 1,0.44421 1,0.99598 v 0.008 c 0,0.55176 -0.446,0.99597 -1,0.99597 h -4.25852 c -0.554,0 -1,-0.44421 -1,-0.99597 v -0.008 c 0,-0.55177 0.446,-0.99598 1,-0.99598 z m 0,30.24784 h 4.25852 c 0.554,0 1,-0.44421 1,-0.99598 v -0.008 c 0,-0.55176 -0.446,-0.99597 -1,-0.99597 h -4.25852 c -0.554,0 -1,0.44421 -1,0.99597 v 0.008 c 0,0.55177 0.446,0.99598 1,0.99598 z M 169.77446,116.6181 h -4.25852 c -0.554,0 -1,0.44421 -1,0.99598 v 0.008 c 0,0.55176 0.446,0.99597 1,0.99597 h 4.25852 c 0.554,0 1,-0.44421 1,-0.99597 v -0.008 c 0,-0.55177 -0.446,-0.99598 -1,-0.99598 z m 0,30.24784 h -4.25852 c -0.554,0 -1,-0.44421 -1,-0.99598 v -0.008 c 0,-0.55176 0.446,-0.99597 1,-0.99597 h 4.25852 c 0.554,0 1,0.44421 1,0.99597 v 0.008 c 0,0.55177 -0.446,0.99598 -1,0.99598 z"
           rx="1"
           ry="0.99597257" /><g
           id="g7671"
           transform="translate(-3.4948003,-62.895528)"
           style="display:inline"><circle
             style="fill:#fdfaf5;fill-opacity:1;stroke:none;stroke-width:0.410001"
             id="circle4055"
             cx="67.409286"
             cy="162.53746"
             r="3.5"
             d="m 70.909286,162.53746 c 0,1.933 -1.567003,3.5 -3.5,3.5 -1.932996,0 -3.5,-1.567 -3.5,-3.5 0,-1.933 1.567004,-3.5 3.5,-3.5 1.932997,0 3.5,1.567 3.5,3.5 z m 0,64.20018 c 0,-1.933 -1.567003,-3.5 -3.5,-3.5 -1.932996,0 -3.5,1.567 -3.5,3.5 0,1.93299 1.567004,3.5 3.5,3.5 1.932997,0 3.5,-1.56701 3.5,-3.5 z m 77.348004,-64.20018 c 0,1.933 1.567,3.5 3.5,3.5 1.93299,0 3.5,-1.567 3.5,-3.5 0,-1.933 -1.56701,-3.5 -3.5,-3.5 -1.933,0 -3.5,1.567 -3.5,3.5 z m 0,64.20018 c 0,-1.933 1.567,-3.5 3.5,-3.5 1.93299,0 3.5,1.567 3.5,3.5 0,1.93299 -1.56701,3.5 -3.5,3.5 -1.933,0 -3.5,-1.56701 -3.5,-3.5 z" /><circle
             style="fill:#040f1b;fill-opacity:1;stroke:none;stroke-width:0.410001"
             id="path4057"
             cx="67.409286"
             cy="162.53746"
             r="1.5"
             d="m 68.909286,162.53746 c 0,0.82843 -0.671572,1.5 -1.5,1.5 -0.828427,0 -1.5,-0.67157 -1.5,-1.5 0,-0.82843 0.671573,-1.5 1.5,-1.5 0.828428,0 1.5,0.67157 1.5,1.5 z m 0,64.20018 c 0,-0.82843 -0.671572,-1.5 -1.5,-1.5 -0.828427,0 -1.5,0.67157 -1.5,1.5 0,0.82842 0.671573,1.5 1.5,1.5 0.828428,0 1.5,-0.67158 1.5,-1.5 z m 81.348004,-64.20018 c 0,0.82843 0.67157,1.5 1.5,1.5 0.82842,0 1.5,-0.67157 1.5,-1.5 0,-0.82843 -0.67158,-1.5 -1.5,-1.5 -0.82843,0 -1.5,0.67157 -1.5,1.5 z m 0,64.20018 c 0,-0.82843 0.67157,-1.5 1.5,-1.5 0.82842,0 1.5,0.67157 1.5,1.5 0,0.82842 -0.67158,1.5 -1.5,1.5 -0.82843,0 -1.5,-0.67158 -1.5,-1.5 z" /></g><g
           id="g7677"
           transform="translate(-10.920801,-49.295488)"
           style="display:inline"
           inkscape:label="g7677"><circle
             style="fill:#fdfaf5;fill-opacity:1;stroke:none;stroke-width:0.410001"
             id="circle7673"
             cx="67.409286"
             cy="162.53746"
             r="3.5"
             d="m 70.909286,162.53746 c 0,1.933 -1.567003,3.5 -3.5,3.5 -1.932996,0 -3.5,-1.567 -3.5,-3.5 0,-1.933 1.567004,-3.5 3.5,-3.5 1.932997,0 3.5,1.567 3.5,3.5 z m 0,37.0001 c 0,-1.933 -1.567003,-3.5 -3.5,-3.5 -1.932996,0 -3.5,1.567 -3.5,3.5 0,1.93299 1.567004,3.5 3.5,3.5 1.932997,0 3.5,-1.56701 3.5,-3.5 z m 92.200004,-37.0001 c 0,1.933 1.567,3.5 3.5,3.5 1.93299,0 3.5,-1.567 3.5,-3.5 0,-1.933 -1.56701,-3.5 -3.5,-3.5 -1.933,0 -3.5,1.567 -3.5,3.5 z m 0,37.0001 c 0,-1.933 1.567,-3.5 3.5,-3.5 1.93299,0 3.5,1.567 3.5,3.5 0,1.93299 -1.56701,3.5 -3.5,3.5 -1.933,0 -3.5,-1.56701 -3.5,-3.5 z" /><circle
             style="fill:#040f1b;fill-opacity:1;stroke:none;stroke-width:0.410001"
             id="circle7675"
             cx="67.409286"
             cy="162.53746"
             r="1.5"
             d="m 68.909286,162.53746 c 0,0.82843 -0.671572,1.5 -1.5,1.5 -0.828427,0 -1.5,-0.67157 -1.5,-1.5 0,-0.82843 0.671573,-1.5 1.5,-1.5 0.828428,0 1.5,0.67157 1.5,1.5 z m 0,37.0001 c 0,-0.82843 -0.671572,-1.5 -1.5,-1.5 -0.828427,0 -1.5,0.67157 -1.5,1.5 0,0.82842 0.671573,1.5 1.5,1.5 0.828428,0 1.5,-0.67158 1.5,-1.5 z m 96.200004,-37.0001 c 0,0.82843 0.67157,1.5 1.5,1.5 0.82842,0 1.5,-0.67157 1.5,-1.5 0,-0.82843 -0.67158,-1.5 -1.5,-1.5 -0.82843,0 -1.5,0.67157 -1.5,1.5 z m 0,37.0001 c 0,-0.82843 0.67157,-1.5 1.5,-1.5 0.82842,0 1.5,0.67157 1.5,1.5 0,0.82842 -0.67158,1.5 -1.5,1.5 -0.82843,0 -1.5,-0.67158 -1.5,-1.5 z" /></g></g><g
         id="g7849"
         transform="translate(-10.130845,-29.631415)"
         style="display:inline"><path
           style="display:inline;fill:#fe9ca8;fill-opacity:1;stroke:none;stroke-width:0.410001"
           id="rect414"
           width="13.888982"
           height="2.0000153"
           x="50.309071"
           y="161.53746"
           d="m 51.309071,161.53746 h 11.888981 c 0.554,0 1,0.446 1,1 v 2e-5 c 0,0.554 -0.446,1 -1,1 H 51.309071 c -0.554,0 -1,-0.446 -1,-1 v -2e-5 c 0,-0.554 0.446,-1 1,-1 z m 129.988489,0 h -11.88898 c -0.554,0 -1,0.446 -1,1 v 2e-5 c 0,0.554 0.446,1 1,1 h 11.88898 c 0.554,0 1,-0.446 1,-1 v -2e-5 c 0,-0.554 -0.446,-1 -1,-1 z"
           sodipodi:type="rect"
           rx="1"
           ry="1" /><circle
           style="fill:#fdfaf5;fill-opacity:1;stroke:none;stroke-width:0.410001"
           id="circle7845"
           cx="63.403316"
           cy="162.53746"
           r="3.5"
           d="m 66.903316,162.53746 c 0,1.933 -1.567003,3.5 -3.5,3.5 -1.932996,0 -3.5,-1.567 -3.5,-3.5 0,-1.933 1.567004,-3.5 3.5,-3.5 1.932997,0 3.5,1.567 3.5,3.5 z m 98.800004,0 c 0,1.933 1.567,3.5 3.5,3.5 1.93299,0 3.5,-1.567 3.5,-3.5 0,-1.933 -1.56701,-3.5 -3.5,-3.5 -1.933,0 -3.5,1.567 -3.5,3.5 z" /><circle
           style="fill:#040f1b;fill-opacity:1;stroke:none;stroke-width:0.410001"
           id="circle7847"
           cx="63.403316"
           cy="162.53746"
           r="1.5"
           d="m 64.903316,162.53746 c 0,0.82843 -0.671572,1.5 -1.5,1.5 -0.828427,0 -1.5,-0.67157 -1.5,-1.5 0,-0.82843 0.671573,-1.5 1.5,-1.5 0.828428,0 1.5,0.67157 1.5,1.5 z m 102.800004,0 c 0,0.82843 0.67157,1.5 1.5,1.5 0.82842,0 1.5,-0.67157 1.5,-1.5 0,-0.82843 -0.67158,-1.5 -1.5,-1.5 -0.82843,0 -1.5,0.67157 -1.5,1.5 z" /></g></g><circle
       style="display:inline;fill:none;fill-opacity:1;stroke:#fe9ca8;stroke-width:1.97183;stroke-dasharray:none;stroke-opacity:1"
       id="path9529"
       cx="40.909286"
       cy="89.037468"
       r="69.014084" /><g
       id="g16505"
       inkscape:label="Head"
       style="display:inline"><path
         style="display:inline;color:#000000;fill:#fe9ca8;stroke-width:0.202227;-inkscape-stroke:none"
         d="m 36.665661,30.216787 c 1.083207,0.30682 1.920956,0.723027 2.934795,1.189926 4.602292,2.113054 4.119637,2.681335 7.302557,6.280462 0.859546,0.958158 1.612838,2.104684 1.612838,2.104684 0,0 1.885335,-0.239816 3.090584,0.264497 2.278469,0.952473 4.727689,2.48657 5.744196,4.834407 2.241116,5.173244 -1.179255,9.049843 -5.744196,11.058844 -5.738857,2.670662 -15.639789,2.606631 -21.343963,0 -2.934797,-1.435383 -5.968307,-3.537764 -6.352497,-7.056851 -0.117393,-1.056526 0.112054,-1.992994 0.584291,-2.934795 1.947635,-3.892605 6.862083,-3.820568 10.036998,-6.277793 1.859593,-1.43805 3.188255,-3.580449 2.940131,-5.994987 z M 60.881788,48.33315 c 1.376684,0.669666 4.590222,2.456551 5.620068,3.518414 3.860589,3.983317 3.919284,10.509235 0.728363,14.906091 -1.670167,2.302481 -4.610297,4.287469 -7.086197,5.650814 -4.684999,2.574617 -12.53958,3.956638 -17.87557,3.964642 -6.843409,0.01063 -14.447197,-0.568283 -20.543567,-4.001993 -2.203763,-1.243285 -4.370176,-2.654656 -6.091034,-4.538262 -3.188255,-3.489738 -4.380848,-9.06318 -2.041015,-13.337309 0.709685,-1.299314 1.712852,-2.443884 2.796058,-3.444381 1.408701,-1.299315 2.991395,-1.97962 4.762943,-2.598595 0.215492,2.318487 0.479668,4.172712 2.032441,6.040308 1.85159,2.227778 5.143896,3.991322 7.878593,4.893105 6.075024,2.000996 13.732172,2.059692 19.743166,-0.2001 2.209101,-0.832416 4.919784,-2.089041 6.66999,-3.668494 2.932126,-2.646652 2.613977,-4.493456 3.405761,-7.18424 z M 10.187723,62.981168 c 0.312525,1.798681 1.147987,3.619077 2.172498,5.121158 1.584789,2.326493 3.753869,4.271461 6.163068,5.709512 5.181248,3.089538 12.614285,5.4854 18.675971,5.496069 h 5.86959 l 6.669987,-0.696345 5.602792,-1.438051 c 7.187581,-2.065028 13.626187,-6.499182 16.20347,-13.884193 1.971704,0.697003 4.513517,3.345611 5.591387,5.346607 4.999824,9.273953 -1.275301,17.811542 -9.255276,22.557905 -3.465727,2.059692 -10.631964,4.047344 -14.673976,4.722351 -2.812069,0.466898 -5.680163,0.995163 -8.537586,1.000495 -0.986949,0 -4.509667,0.0732 -6.645469,-0.07969 l -5.62731,-0.413889 C 26.684689,95.742758 21.367374,94.656886 16.122095,92.172982 13.691552,91.023076 9.7322443,88.6539 7.8966649,86.754283 3.0409125,81.73578 1.133296,74.374784 4.772441,68.102326 6.311875,65.450339 8.0026342,64.779399 10.187723,62.981168 Z"
         id="path30027"
         transform="translate(1.25e-6)"
         inkscape:label="Main Color" /><circle
         style="display:inline;fill:#162b4d;fill-opacity:1;stroke:none;stroke-width:2;stroke-linecap:butt;stroke-linejoin:miter;stroke-dasharray:none;stroke-opacity:1"
         id="path15257"
         cx="21.195427"
         cy="61.328819"
         r="2.0999999"
         transform="translate(1.25e-6)"
         inkscape:label="Chip 9" /><circle
         style="display:inline;fill:#162b4d;fill-opacity:1;stroke:none;stroke-width:2;stroke-linecap:butt;stroke-linejoin:miter;stroke-dasharray:none;stroke-opacity:1"
         id="circle16214"
         cx="61.619423"
         cy="61.301777"
         r="2.0999999"
         transform="translate(1.25e-6)"
         inkscape:label="Chip 8" /><circle
         style="display:inline;fill:#162b4d;fill-opacity:1;stroke:none;stroke-width:2;stroke-linecap:butt;stroke-linejoin:miter;stroke-dasharray:none;stroke-opacity:1"
         id="circle16212"
         cx="41.94709"
         cy="67.622726"
         r="2.0999999"
         transform="translate(1.25e-6)"
         inkscape:label="Chip 7" /><circle
         style="fill:#162b4d;fill-opacity:1;stroke:none;stroke-width:2;stroke-linecap:butt;stroke-linejoin:miter;stroke-dasharray:none;stroke-opacity:1"
         id="circle16484"
         cx="11.50332"
         cy="76.652664"
         r="2.0999999"
         inkscape:label="Chip 6" /><circle
         style="fill:#162b4d;fill-opacity:1;stroke:none;stroke-width:2;stroke-linecap:butt;stroke-linejoin:miter;stroke-dasharray:none;stroke-opacity:1"
         id="circle16486"
         cx="40.721603"
         cy="86.908089"
         r="2.0999999"
         inkscape:label="Chip 5" /><circle
         style="fill:#162b4d;fill-opacity:1;stroke:none;stroke-width:2;stroke-linecap:butt;stroke-linejoin:miter;stroke-dasharray:none;stroke-opacity:1"
         id="circle16488"
         cx="53.879517"
         cy="85.618095"
         r="2.0999999"
         inkscape:label="Chip 4" /><circle
         style="fill:#162b4d;fill-opacity:1;stroke:none;stroke-width:2;stroke-linecap:butt;stroke-linejoin:miter;stroke-dasharray:none;stroke-opacity:1"
         id="circle16490"
         cx="70.907394"
         cy="76.588158"
         r="2.0999999"
         inkscape:label="Chip 3" /><circle
         style="fill:#162b4d;fill-opacity:1;stroke:none;stroke-width:2;stroke-linecap:butt;stroke-linejoin:miter;stroke-dasharray:none;stroke-opacity:1"
         id="circle16492"
         cx="23.575787"
         cy="83.086967"
         r="1.5"
         inkscape:label="Chip 2" /><circle
         style="fill:#162b4d;fill-opacity:1;stroke:none;stroke-width:2;stroke-linecap:butt;stroke-linejoin:miter;stroke-dasharray:none;stroke-opacity:1"
         id="circle16494"
         cx="40.92614"
         cy="48.789349"
         r="1.5"
         inkscape:label="Chip 1" /><path
         id="path28849"
         fill="none"
         stroke="#000000"
         stroke-width="0.747953"
         d="m 51.928395,53.248088 c 1.359207,-0.833301 2.470166,-1.618061 3.257726,-2.457523 2.707829,-2.886282 1.373156,-7.7276 2.16451,-5.899802 2.241116,5.173244 -1.179255,9.049843 -5.744196,11.058844 -5.738857,2.670662 -15.639789,2.606631 -21.343963,0 -2.934797,-1.435383 -5.968307,-3.537764 -6.352497,-7.056851 7.9616,7.586587 22.739124,7.509442 28.01842,4.355332 z m 15.794594,2.655998 c 0.0199,-1.879882 -2.250979,-5.114385 -1.221133,-4.052522 3.860589,3.983317 3.919284,10.509235 0.728363,14.906091 -1.670167,2.302481 -4.610297,4.287469 -7.086197,5.650814 -4.684999,2.574617 -12.53958,3.956638 -17.87557,3.964642 -6.843409,0.01063 -14.447197,-0.568283 -20.543567,-4.001993 -2.203763,-1.243285 -4.370176,-2.654656 -6.091034,-4.538262 0,0 5.361094,2.266649 12.920581,5.098718 6.075024,2.000996 18.464341,1.584245 24.475335,-0.675547 4.482706,-0.767917 10.474783,-5.274173 12.128242,-7.288998 2.545131,-2.549902 2.787976,-6.691415 2.56498,-9.062943 z m -0.671963,32.20311 c 5.553266,-3.307324 7.732259,-7.111764 8.90565,-12.507338 1.012275,-2.963346 0.10194,-8.964929 1.17981,-6.963933 4.999824,9.273953 -1.275301,17.811542 -9.255276,22.557905 -3.465727,2.059692 -10.631964,4.047344 -14.673976,4.722351 -2.812069,0.466898 -5.680163,0.995163 -8.537586,1.000495 -0.986949,0 -4.509667,0.0732 -6.645469,-0.07969 l -5.62731,-0.413889 c -5.71218,-0.680339 -11.029495,-1.766211 -16.274774,-4.250115 -3.408206,-2.593554 -3.603564,-3.166111 -4.53672,-5.772895 0,0 1.180401,0.64846 2.335445,1.33735 5.395773,3.682287 16.595104,5.890601 26.882039,6.210632 4.366439,0.135842 8.600243,-0.415476 12.443547,-1.249864 5.009713,-1.087618 9.800493,-2.0084 13.80462,-4.591009 z"
         sodipodi:nodetypes="cscccccccccccccccccccccccccscssc"
         style="display:inline;opacity:0.1;fill:#000000;fill-opacity:1;stroke:none;stroke-width:0.202227;stroke-dasharray:none;stroke-opacity:1"
         inkscape:label="Shadow"
         transform="translate(1.25e-6)" /><path
         id="path19035"
         fill="none"
         stroke="#000000"
         stroke-width="0.747953"
         d="m 36.665661,30.216787 c 3.327932,1.765135 10.132252,11.830486 -7.599372,17.930457 -5.738857,2.670662 6.900357,10.408994 1.196183,7.802363 -2.934797,-1.435383 -5.968307,-3.537764 -6.352497,-7.056851 -0.117393,-1.056526 0.112054,-1.992994 0.584291,-2.934795 1.947635,-3.892605 6.862083,-3.820568 10.036998,-6.277793 1.859593,-1.43805 3.188255,-3.580449 2.940131,-5.994987 z M 60.881788,48.33315 c 1.376684,0.669666 1.892971,2.40751 2.040081,3.84944 -0.197543,2.622431 -2.25986,4.415905 -3.243945,5.404417 -9.546659,6.303996 -16.535423,5.995659 -23.013899,5.789607 -1.526069,-0.09775 -5.253323,-0.690983 -8.582869,-2.14239 -2.091083,-0.911541 -4.225558,-2.254339 -5.632536,-3.284225 -2.301822,-1.684898 -3.472414,-3.424858 -3.472414,-3.424858 0,0 -0.603903,0.336438 -1.35048,1.571396 -0.465191,0.769501 -1.025346,2.108952 -1.382703,3.108683 -0.912726,2.553416 -0.06936,5.389058 1.786306,7.678174 2.957762,3.648639 7.198047,7.159604 3.695556,5.487724 -2.203763,-1.243285 -4.370176,-2.654656 -6.091034,-4.538262 -3.188255,-3.489738 -4.380848,-9.06318 -2.041015,-13.337309 0.709685,-1.299314 1.712852,-2.443884 2.796058,-3.444381 1.408701,-1.299315 2.991395,-1.97962 4.762943,-2.598595 0.215492,2.318487 0.479668,4.172712 2.032441,6.040308 1.85159,2.227778 5.143896,3.991322 7.878593,4.893105 6.075024,2.000996 13.732172,2.059692 19.743166,-0.2001 2.209101,-0.832416 4.919784,-2.089041 6.66999,-3.668494 2.932126,-2.646652 2.613977,-4.493456 3.405761,-7.18424 z M 19.020005,76.940324 C 15.77428,75.174679 12.752084,72.830864 10.895797,71.055599 9.6593052,69.873076 9.0983235,68.655388 9.0983235,68.655388 c 0,0 -2.7557129,3.620318 -2.6647849,6.796858 0.088441,3.08967 1.197678,6.013373 1.197678,6.013373 C 9.4222948,85.591291 21.367374,94.656886 16.122095,92.172982 13.691552,91.023076 9.7322443,88.6539 7.8966649,86.754283 3.0409125,81.73578 1.133296,74.374784 4.772441,68.102326 c 1.539434,-2.651987 3.2301932,-3.322927 5.415282,-5.121158 0.312525,1.798681 1.147987,3.619077 2.172498,5.121158 1.584789,2.326493 3.753869,4.271461 6.163068,5.709512 5.181248,3.089538 12.614285,5.4854 18.675971,5.496069 h 5.86959 l 6.669987,-0.696345 5.602792,-1.438051 c 7.187581,-2.065028 13.626187,-6.499182 16.20347,-13.884193 0.771007,0.168176 1.228334,1.366763 1.265888,1.915653 -0.125421,1.305228 -0.05966,4.57849 -5.55891,8.910722 -3.552413,2.614526 -6.83303,3.957679 -10.701645,5.291552 C 53.35692,80.3943 48.042004,82.473298 35.817548,81.620415 25.218671,80.60449 21.990529,78.556261 19.020005,76.940324 Z"
         sodipodi:nodetypes="ccccccccccccsscsssccccccccccsscsccccccccccccccccs"
         style="display:inline;opacity:0.9;fill:#f8fcff;fill-opacity:1;stroke:none;stroke-width:0.202227;stroke-dasharray:none;stroke-opacity:1"
         inkscape:label="Highlight" /><path
         id="path29227"
         fill="none"
         stroke="#000000"
         stroke-width="0.747953"
         d="m 48.464453,39.898686 c 0,0 1.896421,-0.256948 3.10167,0.247365 0.297151,0.890621 -11.981557,3.810507 -3.10167,-0.247365 z"
         sodipodi:nodetypes="ccc"
         style="display:inline;opacity:0.9;fill:#ffffff;fill-opacity:1;stroke:none;stroke-width:0.202227;stroke-dasharray:none;stroke-opacity:1"
         inkscape:label="Highlight 2" /><path
         style="display:inline;color:#000000;fill:#314042;-inkscape-stroke:none"
         d="m 36.529297,30.072266 0.03711,0.167968 0.804688,3.458985 c 0.241861,2.370335 -1.063799,4.478617 -2.902344,5.90039 -1.567108,1.212863 -3.579241,1.809305 -5.455078,2.587891 -1.875837,0.778586 -3.620219,1.74765 -4.609375,3.724609 -0.478392,0.954077 -0.715417,1.914773 -0.595703,2.992188 0.38995,3.571848 3.46506,5.696299 6.410156,7.136719 h 0.002 c 5.743829,2.624751 15.64799,2.689689 21.427734,0 2.294851,-1.010382 4.308603,-2.490174 5.46875,-4.38086 1.160273,-1.89089 1.456827,-4.197131 0.326172,-6.808594 v -0.002 c -1.03405,-2.386565 -3.508997,-3.929496 -5.798828,-4.886718 -0.625207,-0.261606 -1.406416,-0.325007 -2.035156,-0.328125 -0.595388,-0.003 -0.999741,0.04696 -1.046875,0.05273 -0.03359,-0.05099 -0.737839,-1.122836 -1.583984,-2.066406 v -0.002 C 45.39154,35.824476 44.7178,34.783946 43.855469,33.917969 42.992872,33.051724 41.948064,32.372973 39.642578,31.314453 38.630255,30.848252 37.786482,30.428769 36.693359,30.119141 Z m 0.279297,0.310546 c 0.985765,0.298087 1.793672,0.674821 2.75,1.115235 2.296802,1.054532 3.31192,1.716561 4.154297,2.5625 0.842377,0.845939 1.520346,1.889919 3.115234,3.693359 0.852381,0.950171 1.603516,2.09375 1.603516,2.09375 l 0.03516,0.05273 0.0625,-0.0078 c 0,0 0.464839,-0.05969 1.080078,-0.05664 0.615239,0.0031 1.378944,0.07175 1.958984,0.314454 2.266611,0.947516 4.690096,2.473022 5.689453,4.78125 1.109437,2.560949 0.81807,4.780565 -0.3125,6.623046 -1.130569,1.842482 -3.109862,3.304144 -5.378906,4.302735 h -0.002 c -5.697958,2.651629 -15.595257,2.588505 -21.259766,0 -2.923726,-1.430307 -5.916596,-3.511197 -6.294921,-6.976563 -0.115072,-1.035635 0.108138,-1.947429 0.574218,-2.876953 0.958477,-1.915642 2.645792,-2.856055 4.507813,-3.628906 1.862021,-0.772851 3.894149,-1.370875 5.501953,-2.615234 1.879598,-1.45352 3.231013,-3.626885 2.978516,-6.083985 v -0.0078 z m 24.009765,17.806641 -0.0332,0.115234 c -0.398695,1.354919 -0.517146,2.488267 -0.898437,3.603516 -0.381291,1.115249 -1.022488,2.218936 -2.478516,3.533203 -1.731457,1.562534 -4.435454,2.820192 -6.638672,3.650391 C 44.785558,61.34143 37.145347,61.282342 31.09375,59.289062 28.373368,58.392 25.092413,56.630371 23.261719,54.427734 21.726377,52.581104 21.4672,50.759208 21.251953,48.443359 l -0.01172,-0.128906 -0.121093,0.04297 c -1.775622,0.620398 -3.375314,1.306162 -4.798829,2.61914 -1.088582,1.005464 -2.099481,2.158135 -2.816406,3.470704 -2.364559,4.319295 -1.161255,9.933081 2.054688,13.453125 1.732394,1.896233 3.909604,3.313153 6.117187,4.558593 6.123454,3.448965 13.744529,4.026264 20.59375,4.015625 5.353295,-0.008 13.210415,-1.38633 17.923828,-3.976562 v -0.002 c 2.482596,-1.367032 5.432077,-3.353913 7.119141,-5.679688 3.219199,-4.43582 3.160358,-11.012579 -0.738281,-15.035156 -0.531782,-0.548314 -1.594085,-1.256979 -2.701172,-1.921875 -1.107087,-0.664896 -2.254942,-1.280417 -2.947266,-1.617188 z m 0.128907,0.294922 c 0.691361,0.340339 1.762132,0.910179 2.822265,1.546875 1.101313,0.661428 2.162093,1.377077 2.660156,1.890625 3.822531,3.944049 3.881388,10.419461 0.71875,14.777344 -1.653266,2.279182 -4.583535,4.261438 -7.052734,5.621093 -4.656575,2.558997 -12.50945,3.943194 -17.828125,3.951172 C 35.429995,76.282105 27.844665,75.701652 21.775391,72.283203 19.575452,71.042076 17.418302,69.6366 15.708984,67.765625 12.548423,64.3062 11.366538,58.773876 13.681641,54.544922 c 0.702443,-1.286057 1.697563,-2.424393 2.77539,-3.419922 1.362359,-1.256571 2.896617,-1.922929 4.615235,-2.529297 0.213971,2.255633 0.497447,4.111461 2.035156,5.960938 1.872482,2.252914 5.174821,4.019279 7.923828,4.925781 6.098439,2.008708 13.772544,2.068774 19.810547,-0.201172 2.21498,-0.834631 4.932221,-2.093084 6.701172,-3.689453 1.476095,-1.332382 2.144545,-2.474678 2.535156,-3.617188 0.377294,-1.103558 0.506964,-2.212943 0.869141,-3.490234 z m -50.689453,14.308594 -0.134766,0.109375 c -2.1748545,1.789808 -3.8856474,2.475056 -5.4375001,5.148437 -3.6640704,6.31542 -1.742231,13.728941 3.1386718,18.773438 1.856873,1.921653 5.8132053,4.284741 8.2539063,5.439453 5.258861,2.490336 10.589237,3.578804 16.306641,4.259765 h 0.002 l 5.630859,0.414063 c 2.145991,0.153619 5.670395,0.08008 6.652344,0.08008 2.869756,-0.0054 5.743819,-0.535254 8.554687,-1.001953 4.054665,-0.67712 11.215197,-2.658007 14.708985,-4.734375 4.002868,-2.380843 7.580089,-5.712457 9.533203,-9.623047 1.953113,-3.91059 2.272258,-8.406378 -0.242188,-13.070312 -1.091677,-2.026628 -3.624638,-4.679803 -5.646484,-5.394532 l -0.0957,-0.0332 -0.0332,0.0957 c -2.564167,7.347428 -8.968711,11.761469 -16.134766,13.820313 l -5.59375,1.435547 -6.65625,0.695312 h -5.865234 c -6.035183,-0.01062 -13.460544,-2.402897 -18.625,-5.482422 -2.397678,-1.431174 -4.555478,-3.367004 -6.13086,-5.679687 -1.0175,-1.491802 -1.846958,-3.30196 -2.15625,-5.082031 z m -0.123047,0.355468 c 0.335227,1.767016 1.139878,3.541616 2.142578,5.011719 1.594193,2.340299 3.772644,4.293357 6.193359,5.738281 5.19803,3.099545 12.640338,5.49905 18.728516,5.509766 h 5.875 l 6.68164,-0.697266 5.611328,-1.439453 h 0.002 c 7.169051,-2.059704 13.594107,-6.489309 16.21289,-13.83789 1.913595,0.715325 4.412856,3.297053 5.464844,5.25 2.485374,4.610009 2.167764,9.02149 0.238281,12.884765 -1.929483,3.863276 -5.477979,7.173548 -9.455078,9.539063 -3.437659,2.043011 -10.609321,4.036092 -14.638672,4.708984 -2.813264,0.467097 -5.6764,0.994691 -8.521484,1 -0.991948,0 -4.513063,0.07208 -6.638672,-0.08008 l -5.623047,-0.414062 h -0.0039 C 26.698839,95.642521 21.396507,94.558933 16.166016,92.082031 13.745636,90.936933 9.7830322,88.561171 7.96875,86.683594 3.1381577,81.691094 1.2451627,74.381828 4.859375,68.152344 6.3559235,65.574236 8.0036455,64.875292 10.134766,63.148437 Z"
         id="path30029"
         transform="translate(1.25e-6)"
         inkscape:label="Outline" /></g><g
       id="g26883"
       inkscape:label="Cup"><path
         style="color:#000000;fill:#73e2d0;stroke-width:0.2;-inkscape-stroke:none;fill-opacity:1"
         d="m 2.4003906,83.835938 c -2.31596493,2.082243 -1.338383,5.318069 0.390625,7.4375 3.086183,3.787336 8.5754814,6.59808 13.1542964,8.146484 7.545467,2.507038 16.456078,3.770028 24.964844,3.816408 8.508766,-0.0464 17.417425,-1.30937 24.962891,-3.816408 4.578815,-1.548404 10.068114,-4.359148 13.154297,-8.146484 1.729008,-2.119431 2.70659,-5.355258 0.390625,-7.4375 -0.941165,3.006216 -2.957658,5.507525 -7.435547,8.830078 -9.883476,5.920355 -22.672688,7.383244 -31.072266,7.642574 -8.399578,-0.25933 -21.188789,-1.722219 -31.0722654,-7.642574 -4.4778887,-3.322553 -6.4963353,-5.823862 -7.4375,-8.830078 z m 2.033219,11.914678 7.1596764,4.09285 4.416,30.894004 -5.703966,-4.29507 z m 72.9513524,0 -7.159676,4.09285 -4.416,30.894004 5.703966,-4.29507 z m -63.391676,5.099064 6.68,2.25844 3.209,31.38032 -5.473,-2.35097 z m 53.832,0 -6.68,2.25844 -3.209,31.38032 5.473,-2.35097 z m -44.669,2.91379 7.449,1.33548 0.769,31.40009 -5.009,-1.19557 z m 35.506,0 -7.449,1.33548 -0.769,31.40009 5.009,-1.19557 z m -25.694,1.61597 6.851,0.35152 v 31.62567 l -6.082,-0.47773 z m 15.882,0 -6.851,0.35152 v 31.62567 l 6.082,-0.47773 z"
         id="path30054"
         inkscape:label="Main Color" /><path
         id="path26885"
         fill="none"
         stroke="#000000"
         stroke-width="0.752861"
         d="m 4.5789851,95.910957 3.1371298,1.830165 3.8854901,25.528528 c 0,0 0.831504,4.65567 -0.285502,3.81489 l -0.912018,-0.68648 z m 9.4143009,4.938723 2.561293,0.88428 3.006027,26.98629 c 0,0 0.542417,4.33567 -0.407752,3.75331 l -0.743568,-0.33609 z m 9.274169,3.04206 1.729491,0.30304 1.990691,27.35325 c 0,0 0.395933,3.87852 -0.340957,3.72247 l -0.187328,-0.0461 z m 9.804874,1.59317 1.378465,0.0724 0.08433,25.49759 c 0,0 -0.03207,5.78159 -0.55926,5.74481 l -0.135959,-0.0134 z"
         inkscape:label="Highlight"
         style="display:inline;opacity:0.9;fill:url(#linearGradient27698);fill-opacity:1;stroke:none;stroke-width:0.2;stroke-dasharray:none;stroke-opacity:1"
         sodipodi:nodetypes="cccccccccccccccccccccccc" /><path
         d="m 2.4221719,83.804844 c -2.31596505,2.082243 -1.338383,5.318069 0.390625,7.4375 3.086183,3.787336 8.5754821,6.59808 13.1542971,8.146484 7.545467,2.507042 16.456078,3.770032 24.964844,3.816412 8.508767,-0.0464 17.417425,-1.30937 24.962891,-3.816412 4.578816,-1.548404 10.068118,-4.359148 13.154298,-8.146484 1.72901,-2.119431 2.70659,-5.355257 0.39062,-7.4375 -0.94116,3.006217 -2.95765,5.507525 -7.43554,8.830078 C 62.120728,98.555277 49.331516,100.01816 40.931938,100.2775 32.53236,100.01816 19.743149,98.555277 9.8596716,92.634922 5.3817829,89.312369 3.3633369,86.811061 2.4221719,83.804844 Z"
         style="display:inline;opacity:0.9;fill:url(#linearGradient28509);fill-opacity:1;stroke:none;stroke-width:0.2;stroke-dasharray:none;stroke-opacity:1"
         id="path28490"
         transform="translate(1.25e-6)"
         inkscape:label="Highlight 1" /><path
         id="rect28623"
         style="opacity:0.9;fill:#ffffff;stroke-width:0.2"
         d="m 42.095295,105.82379 1.003475,-0.0483 -0.187424,18.62727 -0.690855,12.83656 -0.122687,0.0101 z"
         sodipodi:nodetypes="cccccc"
         inkscape:label="Highlight 2" /><path
         id="path28626"
         style="opacity:0.9;fill:url(#linearGradient28634);stroke-width:0.2;fill-opacity:1"
         d="m 51.242036,105.09953 1.215991,-0.22679 -0.861773,18.82606 -0.956335,12.76004 -0.191741,0.0401 z"
         sodipodi:nodetypes="cccccc"
         inkscape:label="Highlight 3" /><path
         id="path28636"
         style="opacity:0.9;fill:url(#linearGradient28634);fill-opacity:1;stroke-width:0.2"
         d="m 51.240611,105.10096 1.215991,-0.22679 -0.860348,18.82463 -0.858705,12.63177 -0.191741,0.0401 z"
         sodipodi:nodetypes="cccccc"
         inkscape:label="Highlight 4" /><path
         id="path28638"
         style="opacity:0.9;fill:url(#linearGradient28640);fill-opacity:1;stroke-width:0.2"
         d="m 61.237025,103.18034 1.000758,-0.33649 -1.029521,8.37403 -1.90602,13.69752 -0.283692,-0.009 z"
         sodipodi:nodetypes="cccccc"
         inkscape:label="Highlight 5" /><path
         id="path28776"
         style="opacity:0.9;fill:url(#linearGradient28778);fill-opacity:1;stroke-width:0.2"
         d="m 70.311606,99.922928 0.8169,-0.479015 -1.289659,8.451707 -1.806321,10.17643 -0.283692,-0.009 z"
         sodipodi:nodetypes="cccccc"
         inkscape:label="Highlight 6" /><path
         style="color:#000000;fill:#0b2e33;-inkscape-stroke:none"
         d="m 2.4492188,83.658203 -0.1152344,0.103516 c -1.1823351,1.063016 -1.52769814,2.432225 -1.35351565,3.791015 0.17418245,1.358791 0.85799695,2.711327 1.73242185,3.783203 3.1075561,3.813565 8.6105484,6.627291 13.2011724,8.179688 7.558278,2.511295 16.477821,3.773885 24.996093,3.820315 8.518272,-0.0464 17.435868,-1.30902 24.994141,-3.820315 4.590624,-1.552397 10.093616,-4.366123 13.201172,-8.179688 0.874425,-1.071876 1.558239,-2.424412 1.732422,-3.783203 0.174182,-1.35879 -0.171181,-2.727999 -1.353516,-3.791015 l -0.115234,-0.103516 -0.04687,0.148438 c -0.933431,2.981511 -2.929285,5.462099 -7.396485,8.777343 -9.853523,5.89992 -22.622202,7.365387 -31.011719,7.624996 C 32.52571,99.950001 19.75419,98.485629 9.8984375,92.585937 l -0.00391,-0.002 C 5.427319,89.268731 3.4295122,86.788114 2.4960938,83.806641 Z m -0.070312,0.382813 c 0.9728677,2.950216 3.0023156,5.443195 7.3984375,8.705078 l 0.00586,0.0039 0.00391,0.002 C 19.69697,98.688113 32.498216,100.14861 40.90625,100.4082 h 0.0039 0.0039 c 8.408035,-0.25959 21.209281,-1.720087 31.119141,-7.656247 l 0.0039,-0.002 0.0059,-0.0039 c 4.396133,-3.261891 6.423702,-5.754896 7.396484,-8.705078 1.030211,0.999548 1.362562,2.22733 1.201172,3.486328 -0.167869,1.309538 -0.836825,2.636041 -1.691406,3.683593 -3.064804,3.7611 -8.540425,6.568874 -13.107422,8.113282 C 58.309153,101.827 49.409399,103.09037 40.910156,103.13672 32.410913,103.09039 23.509203,101.827 15.976563,99.324219 11.409565,97.779811 5.9339444,94.972037 2.8691406,91.210937 2.0145593,90.163385 1.3456033,88.836882 1.1777344,87.527344 1.0163442,86.268346 1.3486953,85.040564 2.3789063,84.041016 Z m 1.9160156,11.515625 0.041016,0.21289 5.8789065,30.730469 5.927734,4.46289 -4.457031,-31.18164 z m 73.2285151,0 -0.1875,0.107421 -7.203125,4.117188 -4.457031,31.18164 L 71.603516,126.5 Z M 4.5722656,95.945312 11.501953,99.90625 15.875,130.51172 10.396484,126.38477 Z m 72.6738284,0 -5.824219,30.439458 -5.480469,4.1289 4.375,-30.60742 z m -63.375,4.757818 0.02344,0.16015 4.423828,31.34375 L 24,134.64648 20.765625,103.0332 Z m 54.076172,0 -0.154297,0.0527 -6.740235,2.27734 -3.232422,31.61328 L 63.5,132.20703 Z m -53.832032,0.29492 6.464844,2.18359 3.185547,31.14844 L 18.5,132.06836 Z m 53.587891,0 -4.384766,31.07031 -5.265625,2.26172 3.185547,-31.14844 z m -44.660156,2.64453 0.01367,0.13086 3.216796,31.61133 5.203125,1.24218 -0.773437,-31.61132 z m 35.732422,0 -0.13086,0.0234 -7.529297,1.34961 -0.773437,31.61132 5.203125,-1.24218 z m -35.50586,0.24219 7.238281,1.29882 0.761719,31.1875 -4.8125,-1.14843 z m 35.279297,0 -3.1875,31.33789 -4.8125,1.15039 0.761719,-31.18946 z m -25.683594,1.38867 0.0039,0.10937 0.769531,31.58789 6.28125,0.49414 v -31.82812 z m 16.087891,0 -0.107422,0.006 -6.947266,0.35742 v 31.82812 l 6.28125,-0.49414 z m -15.882813,0.21094 6.648438,0.34179 V 137.25 l -5.882813,-0.46289 z m 15.677735,0 -0.763672,31.30273 -5.884766,0.46289 v -31.42383 z"
         id="path30056"
         transform="translate(1.25e-6)"
         inkscape:label="Outline" /></g></g></svg>
